<svg xmlns="http://www.w3.org/2000/svg" viewBox="0 0 48 48"><path fill="#4e342e" d="M34,29c-0.055,0-0.109-0.005-0.164-0.014l-6-1l0.328-1.973l5.68,0.946l3.709-1.854l0.895,1.789l-4,2	C34.308,28.964,34.154,29,34,29z"/><path fill="#4e342e" d="M39,33h-6c-0.096,0-0.19-0.014-0.282-0.041l-4.989-1.469l0.564-1.918L33.145,31H39V33z"/><path fill="#4e342e" d="M33.105,40.447l-1.83-3.66l-4.646-1.858l0.742-1.857l5,2c0.228,0.091,0.414,0.263,0.523,0.481l2,4	L33.105,40.447z"/><path fill="#4e342e" d="M15,29c0.055,0,0.109-0.005,0.164-0.014l6-1l-0.328-1.973l-5.68,0.946l-3.709-1.854l-0.895,1.789l4,2	C14.692,28.964,14.846,29,15,29z"/><path fill="#4e342e" d="M10,33h6c0.096,0,0.19-0.014,0.282-0.041l4.989-1.469l-0.564-1.918L15.855,31H10V33z"/><path fill="#4e342e" d="M15.895,40.447l1.83-3.66l4.646-1.858l-0.742-1.857l-5,2c-0.228,0.091-0.414,0.263-0.523,0.481l-2,4	L15.895,40.447z"/><polygon fill="#8d6e63" points="28,22 35,21 36,24 28,24"/><path fill="#4e342e" d="M40.712,16.525c0,0-0.73,3.933-3.244,6.518s-2.95-0.547-2.585-2.514s1.895-4.734,1.895-4.734	L40.712,16.525z"/><path fill="#5d4037" d="M33,7c0,0,2,5,4,6c-1,1-3.5,2.765-3.5,2.765S31,11,33,7z"/><path fill="#8d6e63" d="M32,3c0,0,3.75,3.692,3.75,7.385s-2.5,4.923-2.5,4.923S34.5,19,37.625,19	C40.281,19,42,17.462,42,13.769C42,6.231,32,3,32,3"/><path fill="#8d6e63" d="M22,3c0,0-2,7,1,12c1-1,1.875-1.506,1.875-1.506S22,11,22,3z"/><path fill="#8d6e63" d="M26.347,3c0,0,2.382,7.223-0.618,12.223c-1-1-1.854-1.25-1.854-1.25S26.347,11,26.347,3z"/><polygon fill="#8d6e63" points="21,22 14,21 13,24 21,24"/><path fill="#4e342e" d="M8.288,16.525c0,0,0.73,3.933,3.244,6.518s2.95-0.547,2.585-2.514s-1.895-4.734-1.895-4.734	L8.288,16.525z"/><path fill="#5d4037" d="M16,7c0,0-2,5-4,6c1,1,3.5,2.765,3.5,2.765S18,11,16,7z"/><path fill="#8d6e63" d="M17,3C17,3,7,6.231,7,13.769C7,17.462,8.719,19,11.375,19c3.125,0,4.375-3.692,4.375-3.692	s-2.5-1.231-2.5-4.923S17,3,17,3"/><path fill="#6d4c41" d="M24.443,13c0,0,0.021,0.018,0.032,0.027C24.485,13.018,24.506,13,24.506,13H24.443z"/><path fill="#6d4c41" d="M28.021,41c0.523-1.749,1.004-2.769,1.004-5c0-3-1.004-5-1.004-5h-0.023c0,0,2.031-4,2.031-8 c0-8.112-5.225-9.692-5.554-9.973c-0.326,0.281-5.492,1.861-5.492,9.973c0,4,2.008,8,2.008,8s-1.004,2-1.004,5 c0,2.231,0.481,3.251,1.004,5c-2.161,0-4.842,1.993-3.732,3.833c0.986,1.635,3.949,1.052,4.736,0.167c0,0,2.439,2.107,5.021,0 v-0.001c0.766,0.885,3.781,1.547,4.744-0.166C32.806,42.972,30.225,41,28.021,41z"/><path fill="#4e342e" d="M28,31c-0.438,1.609-1.641,3-3.453,3c-1.656,0-2.969-1.516-3.547-3c1.109,0.702,2.359,1,3.547,1	S26.953,31.765,28,31z"/><path fill="#4e342e" d="M29,36c-0.563,1.609-2.109,3-4.44,3c-2.129,0-3.817-1.516-4.56-3c1.426,0.702,3.033,1,4.56,1	C26.087,37,27.654,36.765,29,36z"/><path fill="#4e342e" d="M28,41c-0.438,1.609-1.641,3-3.453,3c-1.656,0-2.969-1.516-3.547-3c1.109,0.702,2.359,1,3.547,1	S26.953,41.765,28,41z"/><circle cx="20.5" cy="15.5" r="1.5" fill="#212121"/><circle cx="28.5" cy="15.5" r="1.5" fill="#212121"/></svg>