<svg xmlns="http://www.w3.org/2000/svg" viewBox="0 0 100 100"><path fill="#78a2d2" d="M69,82H31c-7.18,0-13-5.82-13-13V31c0-7.18,5.82-13,13-13h38c7.18,0,13,5.82,13,13v38 C82,76.18,76.18,82,69,82z"/><path fill="#fefdef" d="M66,77H34c-6.075,0-11-4.925-11-11V34c0-6.075,4.925-11,11-11h32c6.075,0,11,4.925,11,11v32 C77,72.075,72.075,77,66,77z"/><path fill="#1f212b" d="M65.9,77H34.1C27.979,77,23,72.021,23,65.9V34.1C23,27.98,27.979,23,34.1,23h26.4 c0.276,0,0.5,0.224,0.5,0.5S60.776,24,60.5,24H34.1C28.531,24,24,28.53,24,34.1v31.8C24,71.47,28.531,76,34.1,76h31.8 C71.469,76,76,71.47,76,65.9V51.5c0-0.276,0.224-0.5,0.5-0.5s0.5,0.224,0.5,0.5v14.4C77,72.021,72.021,77,65.9,77z"/><path fill="#1f212b" d="M76.5,42c-0.276,0-0.5-0.224-0.5-0.5v-2c0-0.276,0.224-0.5,0.5-0.5s0.5,0.224,0.5,0.5v2 C77,41.776,76.776,42,76.5,42z"/><path fill="#1f212b" d="M76.5,49c-0.276,0-0.5-0.224-0.5-0.5v-4c0-0.276,0.224-0.5,0.5-0.5s0.5,0.224,0.5,0.5v4 C77,48.776,76.776,49,76.5,49z"/><path fill="#1f212b" d="M69,83H31c-7.72,0-14-6.28-14-14V31c0-7.72,6.28-14,14-14h38c7.72,0,14,6.28,14,14v38 C83,76.72,76.72,83,69,83z M31,19c-6.617,0-12,5.383-12,12v38c0,6.617,5.383,12,12,12h38c6.617,0,12-5.383,12-12V31 c0-6.617-5.383-12-12-12H31z"/><path fill="#1f212b" d="M33,62.966v-3.715c0-1.175,0.434-2.311,1.303-3.409c0.868-1.098,1.923-2.107,3.164-3.026 l3.719-2.721c1.265-0.919,2.34-1.96,3.226-3.122c0.886-1.162,1.329-2.356,1.329-3.583c0-1.328-0.45-2.503-1.348-3.525 c-0.898-1.021-2.157-1.532-3.776-1.532c-1.366,0-2.473,0.392-3.321,1.175s-1.271,1.907-1.271,3.37c0,0.283-0.12,0.527-0.359,0.732 c-0.24,0.205-0.561,0.307-0.964,0.307c-0.756,0-1.134-0.522-1.134-1.568c0-1.836,0.682-3.353,2.047-4.552 C36.978,36.599,38.671,36,40.693,36c2.173,0,3.973,0.699,5.401,2.096c1.428,1.396,2.142,3.136,2.142,5.219 c0,1.277-0.316,2.503-0.947,3.678c-0.631,1.175-1.415,2.171-2.349,2.989c-0.935,0.817-1.958,1.647-3.07,2.49l-3.075,2.222 c-0.936,0.639-1.72,1.361-2.352,2.165c-0.632,0.805-0.947,1.603-0.947,2.395v2.375H47.59c0.252,0,0.467,0.115,0.644,0.344 c0.177,0.229,0.266,0.497,0.266,0.803s-0.088,0.581-0.264,0.823c-0.176,0.243-0.39,0.363-0.641,0.363H34.169 c-0.276,0-0.54-0.096-0.792-0.287C33.125,63.484,33,63.247,33,62.966z"/><path fill="#1f212b" d="M50.734,57.541c0-0.836,0.404-1.254,1.215-1.254c0.861,0,1.291,0.355,1.291,1.064 c0,1.343,0.506,2.4,1.519,3.172c1.013,0.773,2.293,1.159,3.837,1.159c1.722,0,3.052-0.475,3.989-1.425 c0.937-0.95,1.406-2.387,1.406-4.312v-0.722c0-1.874-0.469-3.28-1.406-4.217c-0.937-0.937-2.255-1.406-3.951-1.406h-5.281 c-0.862,0-1.272-0.316-1.272-0.948c0-0.05,0.059-0.708,0.059-0.759l0.72-10.944c0.076-0.633,0.342-0.95,0.798-0.95h10.638 c0.557,0,0.836,0.38,0.836,1.139c0,0.785-0.279,1.178-0.837,1.178h-9.204l-0.598,9.117h4.141c2.407,0,4.318,0.621,5.737,1.862 c1.418,1.241,2.127,3.217,2.127,5.927v0.722c0,2.761-0.716,4.794-2.147,6.098C62.922,63.348,61.017,64,58.636,64 c-2.432,0-4.356-0.62-5.774-1.862C51.442,60.898,50.734,59.365,50.734,57.541z"/></svg>