<svg xmlns="http://www.w3.org/2000/svg" viewBox="0 0 40 40"><path fill="#f78f8f" d="M32.4,26.5c0,6.6-5.5,12-12.4,12s-12.4-5.4-12.4-12c0-9,11.3-16.5,11.3-25c2.6,1.2,6.7,5.7,6.7,11.5 c0,2.5-0.5,5-0.5,5c3.1-1,3.1-4.5,3.1-4.5S32.4,19,32.4,26.5z"/><path fill="#ffeea3" d="M19.8,17.5c0.1,0.5,0.2,1.1,0.2,1.6c0,6.1-6.5,6.5-7.3,11.4c-0.6,3.5,1.3,8,7.1,8c4.3,0,7.7-3.8,7.7-8.4 C27.4,25.5,21.1,17.7,19.8,17.5z"/><path fill="none" stroke="#c74343" stroke-linecap="round" stroke-linejoin="round" stroke-miterlimit="10" d="M32.4,26.5c0,6.6-5.5,12-12.4,12s-12.4-5.4-12.4-12c0-9,11.3-16.5,11.3-25c2.6,1.2,6.7,5.7,6.7,11.5 c0,2.5-0.5,5-0.5,5c3.1-1,3.1-4.5,3.1-4.5S32.4,19,32.4,26.5z"/></svg>